<?xml version="1.0" encoding="UTF-8"?>
<!-- Uploaded to: SVG Repo, www.svgrepo.com, Generator: SVG Repo Mixer Tools -->
<svg width="40px" height="40px" viewBox="0 0 24 24" version="1.1" xmlns="http://www.w3.org/2000/svg" xmlns:xlink="http://www.w3.org/1999/xlink">
    <title>Nuts</title>
    <g id="Nuts" stroke="none" stroke-width="1" fill="none" fill-rule="evenodd" stroke-linecap="square">
        <path d="M12,21 C16,19.6666667 18,17.4411765 18,14.3235294 L18,12 L18,12 L6,12 L6,14.3235294 L6,14.3235294 C6,17.4411765 8,19.6666667 12,21 Z M7.5,7 L10.2747211,6.20722253 C10.7040227,6.08456495 11,5.69217895 11,5.24569859 L11,4 L13,4 L12.5575036,4.88499271 C12.3105144,5.3789712 12.5107387,5.97964425 13.0047172,6.22663349 C13.0699767,6.25926325 13.1386113,6.28465283 13.2093952,6.3023488 L16,7 C18.1421954,7.53554885 19.4700868,9.65673819 19.0450148,11.7991358 L19,12 L5,12 L4.882843,11.531372 C4.39057566,9.56230266 5.54842347,7.55759329 7.5,7 Z" id="Combined-Shape" stroke="#000000">

</path>
    </g>
</svg>