<?xml version="1.0" encoding="utf-8"?>

<!DOCTYPE svg PUBLIC "-//W3C//DTD SVG 1.1//EN" "http://www.w3.org/Graphics/SVG/1.1/DTD/svg11.dtd">
<!-- Uploaded to: SVG Repo, www.svgrepo.com, Generator: SVG Repo Mixer Tools -->
<svg height="40px" width="40px" version="1.1" id="_x32_" xmlns="http://www.w3.org/2000/svg" xmlns:xlink="http://www.w3.org/1999/xlink" 
	 viewBox="0 0 512 512"  xml:space="preserve">
<style type="text/css">
	.st0{fill:#000000;}
</style>
<g>
	<path class="st0" d="M450.334,169.808c-37.45-36.212-88.036-60.312-142.052-67.679c-16.517-2.28-33.366-3.381-50.303-3.411
		c-33.878,0.03-68.038,4.512-100.348,13.516l-0.108,0.03c0,0-33.81,9.822-68.594,20.045c-7.572,2.232-15.149,4.463-22.476,6.626
		c-0.044,0-0.088-0.039-0.137-0.068v-0.02c-7.416-1.968-14.174-7.552-16.45-13.429c-1.569-3.8-2.451-8.166-2.451-12.785
		c0.02-8.216,2.739-17.112,9.078-25.045c6.358-7.922,16.405-15.124,31.885-19.45c20.65-5.789,64.375-11.285,105.226-17.98
		c20.518-3.372,40.456-7.084,57.154-11.528c16.78-4.697,30.03-9.073,39.306-17.843c4.44-4.396,4.484-11.548,0.088-15.982
		c-4.415-4.414-11.572-4.463-15.986-0.049c-2.344,2.768-13.912,8.147-29.24,12.016c-23.1,6.188-55.161,11.265-85.506,15.855
		c-30.453,4.638-58.982,8.742-77.092,13.74c-19.388,5.36-33.961,15.125-43.502,27.11C29.26,85.426,24.802,99.38,24.802,112.634
		c0,7.464,1.413,14.734,4.151,21.381c2.188,5.213,5.496,9.54,9.254,13.36c-6.027,1.813-11.373,3.44-15.416,4.707
		c-2.251,0.702-4.127,1.296-5.628,1.803l-3.757,1.354c-3.532,1.52-6.621,3.771-9.097,6.821c-2.431,3.041-4.307,7.114-4.307,11.899
		c-0.064,4.746,2.164,9.676,5.5,12.96c3.358,3.362,7.509,5.476,12.279,6.958c0.994,0.292,4.57,1.618,9.316,3.45
		c16.849,6.509,50.903,20.133,85.594,32.197c17.361,6.003,34.873,11.636,50.703,15.806c15.879,4.181,29.79,6.977,41.23,7.026
		l5.058-0.224h0.044c34.292-3.333,40.943-5.545,72.697-8.761c2.851-0.292,5.652-0.428,8.415-0.428
		c25.833,0,49.221,12.084,66.509,31.456c17.268,19.315,27.938,45.753,27.91,73.029c-0.107,27.841-13.575,48.909-35.257,64.366
		c-20.98,14.821-49.733,23.144-78.51,23.612l-112.622-67.952c-3.977-2.388-9.034-2.096-12.698,0.702
		c-3.688,2.836-5.277,7.65-3.996,12.103l29.434,102.487c1.063,3.664,3.864,6.558,7.509,7.689
		c0.551,0.108,63.951,20.006,124.569,20.094c2.85,0,5.701-0.049,8.502-0.127C422.093,506.816,512,420.934,512,310.232
		C512.019,254.715,487.774,205.981,450.334,169.808z M223.594,478.38c-11.26-2.407-20.781-4.814-27.427-6.607
		c-1.964-0.526-3.114-0.857-4.551-1.276l-19.762-68.79l86.656,52.243l5.784,31.272C249.607,483.39,235.585,480.914,223.594,478.38z
		 M290.839,220.334c-3.533,0-7.114,0.176-10.71,0.556c-32.859,3.333-39.31,5.515-72.565,8.721h0.044l-2.983,0.127
		c-8.658,0.069-24.337-3.02-42.001-8.039c-26.632-7.484-58.479-18.984-84.844-28.992c-13.185-5.009-25.02-9.648-34.253-13.244
		c-6.514-2.543-11.016-4.268-14.661-5.593c0.77-0.244,1.325-0.419,2.162-0.683c16.187-5.008,49.466-14.841,78.593-23.387
		c29.152-8.547,54.148-15.806,54.216-15.806c30.141-8.4,62.319-12.659,94.141-12.639c15.918-0.02,31.778,1.043,47.259,3.157
		c11.24,1.53,22.3,3.957,33.146,7.046l-25.176,91.27C305.962,221.26,298.522,220.334,290.839,220.334z M374.246,259.334
		c-11.022-12.366-24.47-22.432-39.555-29.303l25.172-91.319c28.221,11.002,53.928,27.168,74.753,47.35
		c12.99,12.59,24.031,26.702,32.792,42.049l-80.473,48.403C383.114,270.463,378.972,264.635,374.246,259.334z M311.464,487.784
		c-2.564,0.088-5.17,0.137-7.777,0.137c-5.296,0-10.666-0.312-16.031-0.624l-5.564-30.006c29.346-2.192,58.036-10.934,80.907-27.012
		c16.08-11.197,29.235-26.301,37.06-44.496l53.743,29.722C421.41,458.034,369.919,485.777,311.464,487.784z M406.462,363.497
		c0.857-5.213,1.432-10.534,1.413-16.069c-0.029-17.785-3.908-34.946-10.535-50.771l79.85-48.033
		c7.728,19.1,12.191,39.682,12.191,61.607c0,31.652-8.391,60.993-22.969,86.39L406.462,363.497z"/>
	<path class="st0" d="M147.988,261.088c-4.108-4.697-11.236-5.184-15.943-1.052l-53.792,47.058
		c-4.707,4.102-5.19,11.236-1.063,15.942c4.107,4.707,11.241,5.165,15.943,1.063l53.797-47.058
		C151.632,272.928,152.119,265.795,147.988,261.088z"/>
	<path class="st0" d="M157.509,331.807l53.836-47.087c4.707-4.102,5.189-11.236,1.062-15.943c-4.108-4.706-11.24-5.184-15.947-1.082
		l-53.836,47.088c-4.707,4.122-5.19,11.255-1.063,15.962C145.668,335.442,152.802,335.929,157.509,331.807z"/>
	<path class="st0" d="M231.326,326.672l54.811-45.87c4.795-4.024,5.432-11.148,1.437-15.942c-4.02-4.795-11.152-5.409-15.942-1.413
		l-54.835,45.86c-4.771,4.024-5.408,11.138-1.413,15.952C219.403,330.024,226.536,330.667,231.326,326.672z"/>
	<path class="st0" d="M132.522,151.613c-9.516,0-17.248,7.709-17.248,17.248c0,9.512,7.732,17.268,17.248,17.268
		c9.541,0,17.268-7.756,17.268-17.268C149.79,159.322,142.063,151.613,132.522,151.613z"/>
</g>
</svg>