<?xml version="1.0" encoding="iso-8859-1"?>
<!-- Uploaded to: SVG Repo, www.svgrepo.com, Generator: SVG Repo Mixer Tools -->
<svg fill="#000000" height="40px" width="40px" version="1.1" id="Layer_1" xmlns="http://www.w3.org/2000/svg" xmlns:xlink="http://www.w3.org/1999/xlink" 
	 viewBox="0 0 512 512" xml:space="preserve">
<g>
	<g>
		<path d="M462.834,148.964c-7.27-4.075-15.94-4.9-23.789-2.263c-7.853,2.638-14.259,8.502-17.575,16.09l-16.883,38.59
			c-1.022,2.338-3.331,3.847-5.882,3.847c-3.541,0-6.421-2.88-6.421-6.421V56.27c0-15.602-11.593-28.983-26.391-30.465
			c-5.692-0.567-11.382,0.532-16.378,3.076C349.239,12.91,336.169,0,320.134,0c-16.037,0-29.108,12.912-29.382,28.886
			c-4.015-2.061-8.559-3.232-13.374-3.232c-16.208,0-29.395,13.187-29.395,29.395v8.036c-4.012-2.058-8.551-3.226-13.361-3.226
			c-6.557,0-12.618,2.159-17.514,5.803c-5.137-8.589-14.527-14.354-25.242-14.354c-16.036,0-29.105,12.91-29.382,28.88
			c-4.994-2.544-10.679-3.643-16.378-3.075c-14.799,1.48-26.391,14.863-26.391,30.465v142.538c0,3.541-2.881,6.421-6.421,6.421
			c-2.55,0-4.859-1.51-5.882-3.847L90.531,214.1c-3.317-7.59-9.724-13.454-17.577-16.092c-7.848-2.636-16.52-1.809-23.788,2.263
			c-12.995,7.283-18.27,24.198-12.009,38.506c0.016,0.035,0.031,0.071,0.047,0.107l82.512,181.326v66.671
			c0,13.851,11.268,25.119,25.119,25.119H256c13.851,0,25.119-11.268,25.119-25.119v-26.188h86.046
			c13.851,0,25.119-11.268,25.119-25.119v-66.671l82.511-181.326c0.017-0.035,0.032-0.07,0.048-0.108
			C481.104,173.161,475.829,156.248,462.834,148.964z M51.825,232.304c-2.964-6.835-0.695-14.753,5.179-18.045
			c3.378-1.893,7.23-2.266,10.846-1.051c3.57,1.198,6.482,3.864,7.991,7.317l16.883,38.59c3.575,8.173,11.65,13.453,20.571,13.453
			c12.381,0,22.454-10.073,22.454-22.454V107.577c0-7.465,5.252-13.839,11.956-14.51c3.848-0.391,7.531,0.813,10.366,3.378
			c2.796,2.53,4.401,6.143,4.401,9.911v115.44c0,4.428,3.589,8.017,8.017,8.017s8.017-3.588,8.017-8.017V80.701
			c0-7.368,5.993-13.361,13.361-13.361c7.368,0,13.361,5.993,13.361,13.361v124.38c0,17.42,2.142,34.82,6.367,51.721l13.399,53.593
			c3.907,15.628,5.887,31.722,5.887,47.831v52.229h-97.989L51.825,232.304z M232.588,444.66h-96.839v-18.171h95.132v9.086
			C230.881,438.778,231.49,441.84,232.588,444.66z M265.086,486.881c0,5.01-4.076,9.086-9.086,9.086H144.835
			c-5.01,0-9.086-4.076-9.086-9.086v-26.188h129.336V486.881z M376.251,435.574c0,5.01-4.076,9.086-9.086,9.086H256
			c-5.01,0-9.086-4.076-9.086-9.086v-26.188h129.336V435.574z M376.251,393.353H246.914v-18.171h129.336V393.353z M460.176,180.997
			l-81.068,178.151H246.914v-0.922c0-17.42-2.142-34.82-6.367-51.721l-13.399-53.593c-3.906-15.628-5.887-31.721-5.887-47.831
			V89.253c0-7.368,5.993-13.361,13.361-13.361c7.368,0,13.361,5.993,13.361,13.361v98.338c0,4.428,3.589,8.017,8.017,8.017
			c4.428,0,8.017-3.588,8.017-8.017V55.048c0-7.368,5.993-13.361,13.361-13.361c7.368,0,13.361,5.993,13.361,13.361v115.44
			c0,4.428,3.588,8.017,8.017,8.017c4.428,0,8.017-3.588,8.017-8.017V29.395c0-7.368,5.993-13.361,13.361-13.361
			c7.368,0,13.361,5.993,13.361,13.361v141.094c0,4.428,3.588,8.017,8.017,8.017c4.428,0,8.017-3.588,8.017-8.017V76.426V55.048
			c0-3.768,1.604-7.381,4.401-9.911c2.835-2.564,6.515-3.771,10.366-3.378c6.704,0.67,11.956,7.044,11.956,14.51v142.538
			c0,12.381,10.073,22.454,22.454,22.454c8.922,0,16.995-5.28,20.571-13.454l16.884-38.591c1.507-3.45,4.42-6.116,7.99-7.314
			c3.618-1.216,7.469-0.842,10.845,1.051C460.87,166.244,463.139,174.162,460.176,180.997z"/>
	</g>
</g>
</svg>