<?xml version="1.0" encoding="iso-8859-1"?>
<!-- Uploaded to: SVG Repo, www.svgrepo.com, Generator: SVG Repo Mixer Tools -->
<svg fill="#000000" version="1.1" id="Layer_1" xmlns="http://www.w3.org/2000/svg" xmlns:xlink="http://www.w3.org/1999/xlink" 
	 viewBox="0 0 485.755 485.755" xml:space="preserve">
<g>
	<g>
		<g>
			<rect x="187.878" y="435.756" width="20" height="20"/>
			<rect x="207.878" y="405.756" width="20" height="20"/>
			<rect x="237.878" y="435.756" width="20" height="20"/>
			<rect x="257.878" y="405.756" width="20" height="20"/>
			<rect x="277.878" y="435.756" width="20" height="20"/>
			<path d="M352.419,465.755L352.419,465.755c-4.771-52.688-46.852-94.769-99.541-99.54v-73.054
				c10.998,10.161,26.852,19.624,47.764,19.624c25.112,0,51.795-13.95,79.308-41.462c3.905-3.905,3.905-10.237,0-14.143
				c-27.513-27.512-54.195-41.462-79.308-41.462c-20.91,0-36.765,9.465-47.764,19.627V90.83
				c13.956,14.61,35.703,29.921,65.568,29.925c0.004,0,0.007,0,0.011,0c31.989,0,66.138-17.943,101.495-53.331
				c3.902-3.906,3.901-10.235-0.003-14.14C384.592,17.927,350.441,0,318.448,0c-38.339,0-63.299,25.202-75.57,41.779
				C230.606,25.202,205.647,0,167.307,0c-31.993,0-66.144,17.927-101.501,53.284c-3.904,3.904-3.905,10.233-0.003,14.14
				c35.357,35.388,69.509,53.331,101.504,53.331c29.866,0,51.614-15.312,65.57-29.922v94.534
				c-10.998-10.15-26.852-19.605-47.764-19.605c-25.11,0-51.792,13.934-79.304,41.414c-1.877,1.875-2.932,4.419-2.933,7.072
				c-0.001,2.653,1.053,5.198,2.929,7.074c27.513,27.512,54.195,41.462,79.308,41.462c20.91,0,36.765-9.465,47.764-19.627v123.057
				c-52.689,4.771-94.77,46.852-99.541,99.541H32.877v20h420v-20H352.419z M262.35,254.252c8.193-8.873,21.063-18.533,38.292-18.533
				c17.551,0,36.951,9.591,57.764,28.533c-20.813,18.942-40.213,28.533-57.764,28.533c-17.234,0-30.107-9.664-38.296-18.533h72.036
				v-20H262.35z M261.64,50.355C272.266,37.249,291.385,20,318.448,20c24.433,0,51.33,13.57,80.047,40.358
				c-28.719,26.815-55.609,40.397-80.038,40.396c-0.001,0-0.006,0-0.008,0c-27.071-0.004-46.198-17.286-56.819-30.399h100.848v-20
				H261.64z M167.307,100.755c-24.433,0-51.329-13.581-80.047-40.396C115.978,33.57,142.875,20,167.307,20
				c27.068,0,46.189,17.254,56.811,30.355h-100.84v20h100.925C213.64,83.471,194.556,100.755,167.307,100.755z M185.114,242.785
				c-17.55,0-36.948-9.589-57.76-28.529c20.811-18.916,40.209-28.493,57.76-28.493c17.223,0,30.088,9.637,38.278,18.489h-72.018v20
				h72.032C215.214,233.125,202.343,242.785,185.114,242.785z M153.437,465.756c4.99-44.937,43.195-80,89.441-80
				c46.246,0,84.451,35.063,89.441,80H153.437z"/>
		</g>
	</g>
</g>
</svg>