<?xml version="1.0" encoding="UTF-8"?>
<!-- Uploaded to: SVG Repo, www.svgrepo.com, Generator: SVG Repo Mixer Tools -->
<svg width="40px" height="40px" viewBox="0 0 24 24" version="1.1" xmlns="http://www.w3.org/2000/svg" xmlns:xlink="http://www.w3.org/1999/xlink">
    <title>Soy Bean</title>
    <g id="Soy-Bean" stroke="none" stroke-width="1" fill="none" fill-rule="evenodd" stroke-linecap="round">
        <path d="M20,9.19722436 C20,10.3234988 19.437117,11.3752554 18.5,12 C17.562883,12.6247446 17,13.6765012 17,14.8027756 L17,15 C17,16.1754137 16.2000338,17.1999916 15.059715,17.4850713 L14.7489493,17.5627627 C13.6235704,17.8441074 12.64346,18.5348101 12,19.5 C11.3752554,20.437117 10.3234988,21 9.19722436,21 L5,21 C5.64028925,20.3597108 6,19.4912922 6,18.5857864 L6,17.8027756 C6,16.6765012 6.56288303,15.6247446 7.5,15 C8.46518994,14.35654 9.15589261,13.3764296 9.43723732,12.2510507 L9.63619656,11.4552138 C9.85000633,10.5999747 10.6184397,10 11.5,10 C12.4192991,10 13.2596973,9.48060532 13.6708204,8.65835921 L14.1055728,7.78885438 C14.6537369,6.69252624 15.7742679,6 17,6 L17.5857864,6 C18.4912922,6 19.3597108,5.64028925 20,5 L20,9.19722436 Z M8.43933983,18.5606602 C8.16789322,18.2892136 8,17.9142136 8,17.5 C8,16.6715729 8.67157288,16 9.5,16 C9.91421356,16 10.2892136,16.1678932 10.5606602,16.4393398 M12.0857864,14.9142136 C11.7238576,14.5522847 11.5,14.0522847 11.5,13.5 C11.5,12.3954305 12.3954305,11.5 13.5,11.5 C14.0522847,11.5 14.5522847,11.7238576 14.9142136,12.0857864 M15.9393398,10.5606602 C15.6678932,10.2892136 15.5,9.91421356 15.5,9.5 C15.5,8.67157288 16.1715729,8 17,8 C17.4142136,8 17.7892136,8.16789322 18.0606602,8.43933983 M5.5,11 C6.32842712,11 7,10.3284271 7,9.5 C7,8.67157288 6.32842712,8 5.5,8 C4.67157288,8 4,8.67157288 4,9.5 C4,10.3284271 4.67157288,11 5.5,11 Z M5.5,6 C6.32842712,6 7,5.32842712 7,4.5 C7,3.67157288 6.32842712,3 5.5,3 C4.67157288,3 4,3.67157288 4,4.5 C4,5.32842712 4.67157288,6 5.5,6 Z M10.5,7 C11.3284271,7 12,6.32842712 12,5.5 C12,4.67157288 11.3284271,4 10.5,4 C9.67157288,4 9,4.67157288 9,5.5 C9,6.32842712 9.67157288,7 10.5,7 Z" id="Shape" stroke="#000000">

</path>
    </g>
</svg>