<?xml version="1.0" encoding="iso-8859-1"?>
<!-- Uploaded to: SVG Repo, www.svgrepo.com, Generator: SVG Repo Mixer Tools -->
<!DOCTYPE svg PUBLIC "-//W3C//DTD SVG 1.1//EN" "http://www.w3.org/Graphics/SVG/1.1/DTD/svg11.dtd">
<svg fill="#000000" height="40px" width="40px" version="1.1" id="Capa_1" xmlns="http://www.w3.org/2000/svg" xmlns:xlink="http://www.w3.org/1999/xlink" 
	 viewBox="0 0 60 60" xml:space="preserve">
<g>
	<path d="M41.379,11h-4.714L32.05,0h-4.1l-4.615,11h-4.714C17.176,11,16,12.176,16,13.621v43.248C16,58.596,17.404,60,19.131,60
		h21.738C42.596,60,44,58.596,44,56.869V13.621C44,12.176,42.824,11,41.379,11z M42,13.621V17h-3v-4h2.379
		C41.722,13,42,13.278,42,13.621z M23,13h3v4h-3V13z M28,13h3v4h-3V13z M33,13h4v4h-4V13z M29.28,2h1.439l3.776,9h-8.992L29.28,2z
		 M18.621,13H21v4h-3v-3.379C18,13.278,18.278,13,18.621,13z M40.869,58H19.131C18.507,58,18,57.493,18,56.869V19h24v37.869
		C42,57.493,41.493,58,40.869,58z"/>
	<path d="M18.586,38L30,49.414L41.414,38L30,26.586L18.586,38z M30,46.586L21.414,38L30,29.414L38.586,38L30,46.586z"/>
</g>
</svg>